<svg aria-roledescription="flowchart-v2" role="graphics-document document" viewBox="-8 -8 2212.453125 430.343994140625" style="max-width: 2212.45px; background-color: transparent;" xmlns:xlink="http://www.w3.org/1999/xlink" xmlns="http://www.w3.org/2000/svg" width="100%" id="my-svg"><style>#my-svg{font-family:"trebuchet ms",verdana,arial,sans-serif;font-size:16px;fill:#333;}#my-svg .error-icon{fill:#552222;}#my-svg .error-text{fill:#552222;stroke:#552222;}#my-svg .edge-thickness-normal{stroke-width:2px;}#my-svg .edge-thickness-thick{stroke-width:3.5px;}#my-svg .edge-pattern-solid{stroke-dasharray:0;}#my-svg .edge-pattern-dashed{stroke-dasharray:3;}#my-svg .edge-pattern-dotted{stroke-dasharray:2;}#my-svg .marker{fill:#333333;stroke:#333333;}#my-svg .marker.cross{stroke:#333333;}#my-svg svg{font-family:"trebuchet ms",verdana,arial,sans-serif;font-size:16px;}#my-svg .label{font-family:"trebuchet ms",verdana,arial,sans-serif;color:#333;}#my-svg .cluster-label text{fill:#333;}#my-svg .cluster-label span,#my-svg p{color:#333;}#my-svg .label text,#my-svg span,#my-svg p{fill:#333;color:#333;}#my-svg .node rect,#my-svg .node circle,#my-svg .node ellipse,#my-svg .node polygon,#my-svg .node path{fill:#ECECFF;stroke:#9370DB;stroke-width:1px;}#my-svg .flowchart-label text{text-anchor:middle;}#my-svg .node .katex path{fill:#000;stroke:#000;stroke-width:1px;}#my-svg .node .label{text-align:center;}#my-svg .node.clickable{cursor:pointer;}#my-svg .arrowheadPath{fill:#333333;}#my-svg .edgePath .path{stroke:#333333;stroke-width:2.0px;}#my-svg .flowchart-link{stroke:#333333;fill:none;}#my-svg .edgeLabel{background-color:#e8e8e8;text-align:center;}#my-svg .edgeLabel rect{opacity:0.5;background-color:#e8e8e8;fill:#e8e8e8;}#my-svg .labelBkg{background-color:rgba(232, 232, 232, 0.5);}#my-svg .cluster rect{fill:#ffffde;stroke:#aaaa33;stroke-width:1px;}#my-svg .cluster text{fill:#333;}#my-svg .cluster span,#my-svg p{color:#333;}#my-svg div.mermaidTooltip{position:absolute;text-align:center;max-width:200px;padding:2px;font-family:"trebuchet ms",verdana,arial,sans-serif;font-size:12px;background:hsl(80, 100%, 96.2745098039%);border:1px solid #aaaa33;border-radius:2px;pointer-events:none;z-index:100;}#my-svg .flowchartTitleText{text-anchor:middle;font-size:18px;fill:#333;}#my-svg :root{--mermaid-font-family:"trebuchet ms",verdana,arial,sans-serif;}</style><g><marker orient="auto" markerHeight="12" markerWidth="12" markerUnits="userSpaceOnUse" refY="5" refX="6" viewBox="0 0 10 10" class="marker flowchart" id="my-svg_flowchart-pointEnd"><path style="stroke-width: 1; stroke-dasharray: 1, 0;" class="arrowMarkerPath" d="M 0 0 L 10 5 L 0 10 z"/></marker><marker orient="auto" markerHeight="12" markerWidth="12" markerUnits="userSpaceOnUse" refY="5" refX="4.5" viewBox="0 0 10 10" class="marker flowchart" id="my-svg_flowchart-pointStart"><path style="stroke-width: 1; stroke-dasharray: 1, 0;" class="arrowMarkerPath" d="M 0 5 L 10 10 L 10 0 z"/></marker><marker orient="auto" markerHeight="11" markerWidth="11" markerUnits="userSpaceOnUse" refY="5" refX="11" viewBox="0 0 10 10" class="marker flowchart" id="my-svg_flowchart-circleEnd"><circle style="stroke-width: 1; stroke-dasharray: 1, 0;" class="arrowMarkerPath" r="5" cy="5" cx="5"/></marker><marker orient="auto" markerHeight="11" markerWidth="11" markerUnits="userSpaceOnUse" refY="5" refX="-1" viewBox="0 0 10 10" class="marker flowchart" id="my-svg_flowchart-circleStart"><circle style="stroke-width: 1; stroke-dasharray: 1, 0;" class="arrowMarkerPath" r="5" cy="5" cx="5"/></marker><marker orient="auto" markerHeight="11" markerWidth="11" markerUnits="userSpaceOnUse" refY="5.2" refX="12" viewBox="0 0 11 11" class="marker cross flowchart" id="my-svg_flowchart-crossEnd"><path style="stroke-width: 2; stroke-dasharray: 1, 0;" class="arrowMarkerPath" d="M 1,1 l 9,9 M 10,1 l -9,9"/></marker><marker orient="auto" markerHeight="11" markerWidth="11" markerUnits="userSpaceOnUse" refY="5.2" refX="-1" viewBox="0 0 11 11" class="marker cross flowchart" id="my-svg_flowchart-crossStart"><path style="stroke-width: 2; stroke-dasharray: 1, 0;" class="arrowMarkerPath" d="M 1,1 l 9,9 M 10,1 l -9,9"/></marker><g class="root"><g class="clusters"/><g class="edgePaths"><path marker-end="url(#my-svg_flowchart-pointEnd)" style="fill:none;" class="edge-thickness-normal edge-pattern-solid flowchart-link LS-I LE-R" id="L-I-R-0" d="M45.5,183.652L49.667,183.652C53.833,183.652,62.167,183.652,69.617,183.652C77.067,183.652,83.633,183.652,86.917,183.652L90.2,183.652"/><path marker-end="url(#my-svg_flowchart-pointEnd)" style="fill:none;" class="edge-thickness-normal edge-pattern-solid flowchart-link LS-R LE-V" id="L-R-V-0" d="M142.686,166.652L152.137,145.897C161.588,125.142,180.489,83.632,193.223,62.876C205.957,42.121,212.524,42.121,215.807,42.121L219.091,42.121"/><path marker-end="url(#my-svg_flowchart-pointEnd)" style="fill:none;" class="edge-thickness-normal edge-pattern-solid flowchart-link LS-V LE-S" id="L-V-S-0" d="M281.438,42.121L289.255,42.121C297.073,42.121,312.708,42.121,327.5,44.274C342.291,46.426,356.238,50.731,363.212,52.884L370.186,55.036"/><path marker-end="url(#my-svg_flowchart-pointEnd)" style="fill:none;" class="edge-thickness-normal edge-pattern-solid flowchart-link LS-S LE-R" id="L-S-R-0" d="M400.859,85.121L388.773,102.653C376.687,120.185,352.515,155.249,327.858,172.781C303.201,190.313,278.057,190.313,256.565,190.313C235.073,190.313,217.232,190.313,205.023,189.973C192.815,189.633,186.239,188.953,182.951,188.613L179.663,188.274"/><path marker-end="url(#my-svg_flowchart-pointEnd)" style="fill:none;" class="edge-thickness-normal edge-pattern-solid flowchart-link LS-S LE-T" id="L-S-T-0" d="M429.914,51.121L437.413,43.768C444.911,36.414,459.909,21.707,474.571,14.992C489.232,8.276,503.559,9.553,510.722,10.191L517.885,10.829"/><path marker-end="url(#my-svg_flowchart-pointEnd)" style="fill:none;" class="edge-thickness-normal edge-pattern-solid flowchart-link LS-T LE-S" id="L-T-S-0" d="M558.72,34L544.751,42.354C530.782,50.707,502.844,67.414,485.564,74.918C468.284,82.421,461.662,80.721,458.351,79.871L455.04,79.021"/><path marker-end="url(#my-svg_flowchart-pointEnd)" style="fill:none;" class="edge-thickness-normal edge-pattern-solid flowchart-link LS-S LE-G1" id="L-S-G1-0" d="M426.317,85.121L434.415,95.141C442.514,105.161,458.71,125.202,472.934,136.697C487.158,148.193,499.41,151.143,505.536,152.618L511.662,154.093"/><path marker-end="url(#my-svg_flowchart-pointEnd)" style="fill:none;" class="edge-thickness-normal edge-pattern-solid flowchart-link LS-G1 LE-R" id="L-G1-R-0" d="M530.737,202.073L521.432,206.905C512.127,211.736,493.517,221.399,473.823,226.231C454.13,231.063,433.354,231.063,408.927,231.063C384.5,231.063,356.422,231.063,329.811,231.063C303.201,231.063,278.057,231.063,256.565,231.063C235.073,231.063,217.232,231.063,202.133,226.518C187.035,221.973,174.679,212.883,168.501,208.338L162.323,203.793"/><path marker-end="url(#my-svg_flowchart-pointEnd)" style="fill:none;" class="edge-thickness-normal edge-pattern-solid flowchart-link LS-G1 LE-D" id="L-G1-D-0" d="M674.891,171.742L683.775,171.659C692.659,171.576,710.427,171.409,727.395,171.326C744.364,171.242,760.532,171.242,768.616,171.242L776.7,171.242"/><path marker-end="url(#my-svg_flowchart-pointEnd)" style="fill:none;" class="edge-thickness-normal edge-pattern-solid flowchart-link LS-D LE-P" id="L-D-P-0" d="M917.781,171.242L921.948,171.242C926.115,171.242,934.448,171.242,941.898,171.242C949.348,171.242,955.915,171.242,959.198,171.242L962.481,171.242"/><path marker-end="url(#my-svg_flowchart-pointEnd)" style="fill:none;" class="edge-thickness-normal edge-pattern-solid flowchart-link LS-P LE-G2" id="L-P-G2-0" d="M1074.484,171.242L1078.651,171.242C1082.818,171.242,1091.151,171.242,1103.277,173.908C1115.403,176.574,1131.323,181.905,1139.282,184.571L1147.242,187.237"/><path marker-end="url(#my-svg_flowchart-pointEnd)" style="fill:none;" class="edge-thickness-normal edge-pattern-solid flowchart-link LS-G2 LE-S" id="L-G2-S-0" d="M1167.998,259.217L1156.579,266.378C1145.16,273.539,1122.322,287.861,1097.845,295.023C1073.367,302.184,1047.25,302.184,1021.133,302.184C995.016,302.184,968.898,302.184,940.358,302.184C911.818,302.184,880.854,302.184,845.09,302.184C809.326,302.184,768.76,302.184,724.97,302.184C681.18,302.184,634.164,302.184,591.949,302.184C549.734,302.184,512.32,302.184,484.207,266.86C456.094,231.537,437.281,160.89,427.875,125.566L418.469,90.243"/><path marker-end="url(#my-svg_flowchart-pointEnd)" style="fill:none;" class="edge-thickness-normal edge-pattern-solid flowchart-link LS-G2 LE-E" id="L-G2-E-0" d="M1345.625,216.203L1354.509,216.12C1363.393,216.036,1381.161,215.87,1398.13,215.786C1415.098,215.703,1431.266,215.703,1439.35,215.703L1447.434,215.703"/><path marker-end="url(#my-svg_flowchart-pointEnd)" style="fill:none;" class="edge-thickness-normal edge-pattern-solid flowchart-link LS-E LE-Gen" id="L-E-Gen-0" d="M1500.719,198.703L1518.339,173.661C1535.959,148.62,1571.198,98.536,1604.947,73.495C1638.697,48.453,1670.956,48.453,1687.086,48.453L1703.216,48.453"/><path marker-end="url(#my-svg_flowchart-pointEnd)" style="fill:none;" class="edge-thickness-normal edge-pattern-solid flowchart-link LS-Gen LE-Ev" id="L-Gen-Ev-0" d="M1796.313,43.02L1808.861,41.468C1821.409,39.915,1846.505,36.809,1869.068,36.64C1891.63,36.471,1911.659,39.238,1921.673,40.622L1931.687,42.005"/><path marker-end="url(#my-svg_flowchart-pointEnd)" style="fill:none;" class="edge-thickness-normal edge-pattern-solid flowchart-link LS-Ev LE-Gen" id="L-Ev-Gen-0" d="M1936.938,57.182L1926.048,59.477C1915.159,61.772,1893.38,66.363,1870.811,66.453C1848.241,66.543,1824.881,62.133,1813.201,59.928L1801.521,57.723"/><path marker-end="url(#my-svg_flowchart-pointEnd)" style="fill:none;" class="edge-thickness-normal edge-pattern-solid flowchart-link LS-Ev LE-TD" id="L-Ev-TD-0" d="M2019.766,48.453L2028.201,48.453C2036.635,48.453,2053.505,48.453,2074.645,89.205C2095.786,129.957,2121.196,211.46,2133.901,252.212L2146.607,292.964"/><path marker-end="url(#my-svg_flowchart-pointEnd)" style="fill:none;" class="edge-thickness-normal edge-pattern-solid flowchart-link LS-TD LE-E" id="L-TD-E-0" d="M2139.259,332.023L2127.778,345.743C2116.298,359.464,2093.336,386.904,2066.518,400.624C2039.701,414.344,2009.026,414.344,1975.897,414.344C1942.768,414.344,1907.185,414.344,1869.529,414.344C1831.872,414.344,1792.143,414.344,1747.949,414.344C1703.755,414.344,1655.096,414.344,1613.282,384.83C1571.468,355.317,1536.499,296.29,1519.015,266.776L1501.53,237.263"/><path marker-end="url(#my-svg_flowchart-pointEnd)" style="fill:none;" class="edge-thickness-normal edge-pattern-solid flowchart-link LS-E LE-RP" id="L-E-RP-0" d="M1506.862,198.703L1523.458,183.12C1540.054,167.536,1573.246,136.37,1604.943,123.606C1636.641,110.841,1666.844,116.48,1681.946,119.299L1697.048,122.118"/><path marker-end="url(#my-svg_flowchart-pointEnd)" style="fill:none;" class="edge-thickness-normal edge-pattern-solid flowchart-link LS-RP LE-E" id="L-RP-E-0" d="M1702.258,139.153L1686.288,141.286C1670.318,143.42,1638.378,147.686,1608.801,157.191C1579.225,166.695,1552.012,181.437,1538.406,188.808L1524.799,196.179"/><path marker-end="url(#my-svg_flowchart-pointEnd)" style="fill:none;" class="edge-thickness-normal edge-pattern-solid flowchart-link LS-RP LE-HG" id="L-RP-HG-0" d="M1802.57,132.453L1814.076,132.453C1825.581,132.453,1848.591,132.453,1868.385,134.569C1888.179,136.685,1904.756,140.916,1913.045,143.032L1921.333,145.148"/><path marker-end="url(#my-svg_flowchart-pointEnd)" style="fill:none;" class="edge-thickness-normal edge-pattern-solid flowchart-link LS-HG LE-E" id="L-HG-E-0" d="M1926.469,175.742L1917.324,178.569C1908.18,181.396,1889.891,187.049,1860.882,189.876C1831.872,192.703,1792.143,192.703,1747.949,192.703C1703.755,192.703,1655.096,192.703,1618.024,195.194C1580.953,197.684,1555.468,202.665,1542.725,205.155L1529.983,207.646"/><path marker-end="url(#my-svg_flowchart-pointEnd)" style="fill:none;" class="edge-thickness-normal edge-pattern-solid flowchart-link LS-E LE-PG" id="L-E-PG-0" d="M1524.781,228.379L1538.391,233.168C1552,237.957,1579.219,247.535,1608.745,258.687C1638.272,269.838,1670.107,282.563,1686.024,288.925L1701.941,295.287"/><path marker-end="url(#my-svg_flowchart-pointEnd)" style="fill:none;" class="edge-thickness-normal edge-pattern-solid flowchart-link LS-PG LE-E" id="L-PG-E-0" d="M1691.971,312.146L1677.716,311.277C1663.46,310.409,1634.949,308.671,1605.433,295.972C1575.917,283.273,1545.396,259.611,1530.135,247.781L1514.875,235.95"/><path marker-end="url(#my-svg_flowchart-pointEnd)" style="fill:none;" class="edge-thickness-normal edge-pattern-solid flowchart-link LS-PG LE-R" id="L-PG-R-0" d="M1711.239,338.169L1693.772,347.531C1676.305,356.894,1641.371,375.619,1604.291,384.981C1567.211,394.344,1527.984,394.344,1493.4,394.344C1458.815,394.344,1428.872,394.344,1386.547,394.344C1344.221,394.344,1289.513,394.344,1239.605,394.344C1189.698,394.344,1144.591,394.344,1108.979,394.344C1073.367,394.344,1047.25,394.344,1021.133,394.344C995.016,394.344,968.898,394.344,940.358,394.344C911.818,394.344,880.854,394.344,845.09,394.344C809.326,394.344,768.76,394.344,724.97,394.344C681.18,394.344,634.164,394.344,591.949,394.344C549.734,394.344,512.32,394.344,483.225,394.344C454.13,394.344,433.354,394.344,408.927,394.344C384.5,394.344,356.422,394.344,329.811,394.344C303.201,394.344,278.057,394.344,256.565,394.344C235.073,394.344,217.232,394.344,198.695,362.907C180.159,331.469,160.927,268.595,151.311,237.158L141.695,205.721"/><path marker-end="url(#my-svg_flowchart-pointEnd)" style="fill:none;" class="edge-thickness-normal edge-pattern-solid flowchart-link LS-PG LE-C" id="L-PG-C-0" d="M1817.234,315.523L1826.296,315.44C1835.357,315.357,1853.479,315.19,1872.459,315.107C1891.439,315.023,1911.277,315.023,1921.195,315.023L1931.114,315.023"/></g><g class="edgeLabels"><g class="edgeLabel"><g transform="translate(0, 0)" class="label"><foreignObject height="0" width="0"><div style="display: inline-block; white-space: nowrap;" xmlns="http://www.w3.org/1999/xhtml"><span class="edgeLabel"></span></div></foreignObject></g></g><g class="edgeLabel"><g transform="translate(0, 0)" class="label"><foreignObject height="0" width="0"><div style="display: inline-block; white-space: nowrap;" xmlns="http://www.w3.org/1999/xhtml"><span class="edgeLabel"></span></div></foreignObject></g></g><g class="edgeLabel"><g transform="translate(0, 0)" class="label"><foreignObject height="0" width="0"><div style="display: inline-block; white-space: nowrap;" xmlns="http://www.w3.org/1999/xhtml"><span class="edgeLabel"></span></div></foreignObject></g></g><g class="edgeLabel"><g transform="translate(0, 0)" class="label"><foreignObject height="0" width="0"><div style="display: inline-block; white-space: nowrap;" xmlns="http://www.w3.org/1999/xhtml"><span class="edgeLabel"></span></div></foreignObject></g></g><g class="edgeLabel"><g transform="translate(0, 0)" class="label"><foreignObject height="0" width="0"><div style="display: inline-block; white-space: nowrap;" xmlns="http://www.w3.org/1999/xhtml"><span class="edgeLabel"></span></div></foreignObject></g></g><g class="edgeLabel"><g transform="translate(0, 0)" class="label"><foreignObject height="0" width="0"><div style="display: inline-block; white-space: nowrap;" xmlns="http://www.w3.org/1999/xhtml"><span class="edgeLabel"></span></div></foreignObject></g></g><g class="edgeLabel"><g transform="translate(0, 0)" class="label"><foreignObject height="0" width="0"><div style="display: inline-block; white-space: nowrap;" xmlns="http://www.w3.org/1999/xhtml"><span class="edgeLabel"></span></div></foreignObject></g></g><g transform="translate(328.34375, 231.0625)" class="edgeLabel"><g transform="translate(-21.90625, -9.5)" class="label"><foreignObject height="19" width="43.8125"><div style="display: inline-block; white-space: nowrap;" xmlns="http://www.w3.org/1999/xhtml"><span class="edgeLabel">reject</span></div></foreignObject></g></g><g transform="translate(728.1953125, 171.2421875)" class="edgeLabel"><g transform="translate(-28.8046875, -9.5)" class="label"><foreignObject height="19" width="57.609375"><div style="display: inline-block; white-space: nowrap;" xmlns="http://www.w3.org/1999/xhtml"><span class="edgeLabel">approve</span></div></foreignObject></g></g><g class="edgeLabel"><g transform="translate(0, 0)" class="label"><foreignObject height="0" width="0"><div style="display: inline-block; white-space: nowrap;" xmlns="http://www.w3.org/1999/xhtml"><span class="edgeLabel"></span></div></foreignObject></g></g><g class="edgeLabel"><g transform="translate(0, 0)" class="label"><foreignObject height="0" width="0"><div style="display: inline-block; white-space: nowrap;" xmlns="http://www.w3.org/1999/xhtml"><span class="edgeLabel"></span></div></foreignObject></g></g><g transform="translate(849.890625, 302.18359375)" class="edgeLabel"><g transform="translate(-21.90625, -9.5)" class="label"><foreignObject height="19" width="43.8125"><div style="display: inline-block; white-space: nowrap;" xmlns="http://www.w3.org/1999/xhtml"><span class="edgeLabel">reject</span></div></foreignObject></g></g><g transform="translate(1398.9296875, 215.703125)" class="edgeLabel"><g transform="translate(-28.8046875, -9.5)" class="label"><foreignObject height="19" width="57.609375"><div style="display: inline-block; white-space: nowrap;" xmlns="http://www.w3.org/1999/xhtml"><span class="edgeLabel">approve</span></div></foreignObject></g></g><g class="edgeLabel"><g transform="translate(0, 0)" class="label"><foreignObject height="0" width="0"><div style="display: inline-block; white-space: nowrap;" xmlns="http://www.w3.org/1999/xhtml"><span class="edgeLabel"></span></div></foreignObject></g></g><g class="edgeLabel"><g transform="translate(0, 0)" class="label"><foreignObject height="0" width="0"><div style="display: inline-block; white-space: nowrap;" xmlns="http://www.w3.org/1999/xhtml"><span class="edgeLabel"></span></div></foreignObject></g></g><g transform="translate(1871.6015625, 70.953125)" class="edgeLabel"><g transform="translate(-11.8046875, -9.5)" class="label"><foreignObject height="19" width="23.609375"><div style="display: inline-block; white-space: nowrap;" xmlns="http://www.w3.org/1999/xhtml"><span class="edgeLabel">fail</span></div></foreignObject></g></g><g transform="translate(2070.375, 48.453125)" class="edgeLabel"><g transform="translate(-15.140625, -9.5)" class="label"><foreignObject height="19" width="30.28125"><div style="display: inline-block; white-space: nowrap;" xmlns="http://www.w3.org/1999/xhtml"><span class="edgeLabel">pass</span></div></foreignObject></g></g><g class="edgeLabel"><g transform="translate(0, 0)" class="label"><foreignObject height="0" width="0"><div style="display: inline-block; white-space: nowrap;" xmlns="http://www.w3.org/1999/xhtml"><span class="edgeLabel"></span></div></foreignObject></g></g><g transform="translate(1606.4375, 105.203125)" class="edgeLabel"><g transform="translate(-27.9296875, -9.5)" class="label"><foreignObject height="19" width="55.859375"><div style="display: inline-block; white-space: nowrap;" xmlns="http://www.w3.org/1999/xhtml"><span class="edgeLabel">blocked</span></div></foreignObject></g></g><g transform="translate(1606.4375, 151.953125)" class="edgeLabel"><g transform="translate(-30.1015625, -9.5)" class="label"><foreignObject height="19" width="60.203125"><div style="display: inline-block; white-space: nowrap;" xmlns="http://www.w3.org/1999/xhtml"><span class="edgeLabel">resolved</span></div></foreignObject></g></g><g transform="translate(1871.6015625, 132.453125)" class="edgeLabel"><g transform="translate(-29.8671875, -9.5)" class="label"><foreignObject height="19" width="59.734375"><div style="display: inline-block; white-space: nowrap;" xmlns="http://www.w3.org/1999/xhtml"><span class="edgeLabel">escalate</span></div></foreignObject></g></g><g class="edgeLabel"><g transform="translate(0, 0)" class="label"><foreignObject height="0" width="0"><div style="display: inline-block; white-space: nowrap;" xmlns="http://www.w3.org/1999/xhtml"><span class="edgeLabel"></span></div></foreignObject></g></g><g transform="translate(1606.4375, 257.11328125)" class="edgeLabel"><g transform="translate(-56.65625, -9.5)" class="label"><foreignObject height="19" width="113.3125"><div style="display: inline-block; white-space: nowrap;" xmlns="http://www.w3.org/1999/xhtml"><span class="edgeLabel">phase complete</span></div></foreignObject></g></g><g transform="translate(1606.4375, 306.93359375)" class="edgeLabel"><g transform="translate(-29.4765625, -9.5)" class="label"><foreignObject height="19" width="58.953125"><div style="display: inline-block; white-space: nowrap;" xmlns="http://www.w3.org/1999/xhtml"><span class="edgeLabel">advance</span></div></foreignObject></g></g><g transform="translate(849.890625, 394.34375)" class="edgeLabel"><g transform="translate(-24.9609375, -9.5)" class="label"><foreignObject height="19" width="49.921875"><div style="display: inline-block; white-space: nowrap;" xmlns="http://www.w3.org/1999/xhtml"><span class="edgeLabel">reopen</span></div></foreignObject></g></g><g transform="translate(1871.6015625, 315.0234375)" class="edgeLabel"><g transform="translate(-17.484375, -9.5)" class="label"><foreignObject height="19" width="34.96875"><div style="display: inline-block; white-space: nowrap;" xmlns="http://www.w3.org/1999/xhtml"><span class="edgeLabel">done</span></div></foreignObject></g></g></g><g class="nodes"><g transform="translate(22.75, 183.65234375)" data-id="I" data-node="true" id="flowchart-I-0" class="node default default flowchart-label"><rect height="34" width="45.5" y="-17" x="-22.75" ry="0" rx="0" style="" class="basic label-container"/><g transform="translate(-15.25, -9.5)" style="" class="label"><rect/><foreignObject height="19" width="30.5"><div style="display: inline-block; white-space: nowrap;" xmlns="http://www.w3.org/1999/xhtml"><span class="nodeLabel">Idea</span></div></foreignObject></g></g><g transform="translate(134.9453125, 183.65234375)" data-id="R" data-node="true" id="flowchart-R-1" class="node default default flowchart-label"><rect height="34" width="78.890625" y="-17" x="-39.4453125" ry="0" rx="0" style="" class="basic label-container"/><g transform="translate(-31.9453125, -9.5)" style="" class="label"><rect/><foreignObject height="19" width="63.890625"><div style="display: inline-block; white-space: nowrap;" xmlns="http://www.w3.org/1999/xhtml"><span class="nodeLabel">Research</span></div></foreignObject></g></g><g transform="translate(252.9140625, 42.12109375)" data-id="V" data-node="true" id="flowchart-V-2" class="node default default flowchart-label"><rect height="34" width="57.046875" y="-17" x="-28.5234375" ry="0" rx="0" style="" class="basic label-container"/><g transform="translate(-21.0234375, -9.5)" style="" class="label"><rect/><foreignObject height="19" width="42.046875"><div style="display: inline-block; white-space: nowrap;" xmlns="http://www.w3.org/1999/xhtml"><span class="nodeLabel">Vision</span></div></foreignObject></g></g><g transform="translate(412.578125, 68.12109375)" data-id="S" data-node="true" id="flowchart-S-3" class="node default default flowchart-label"><rect height="34" width="74.65625" y="-17" x="-37.328125" ry="0" rx="0" style="" class="basic label-container"/><g transform="translate(-29.828125, -9.5)" style="" class="label"><rect/><foreignObject height="19" width="59.65625"><div style="display: inline-block; white-space: nowrap;" xmlns="http://www.w3.org/1999/xhtml"><span class="nodeLabel">Strategy</span></div></foreignObject></g></g><g transform="translate(587.1484375, 17)" data-id="T" data-node="true" id="flowchart-T-4" class="node default default flowchart-label"><rect height="34" width="127.96875" y="-17" x="-63.984375" ry="0" rx="0" style="" class="basic label-container"/><g transform="translate(-56.484375, -9.5)" style="" class="label"><rect/><foreignObject height="19" width="112.96875"><div style="display: inline-block; white-space: nowrap;" xmlns="http://www.w3.org/1999/xhtml"><span class="nodeLabel">Task Brainstorm</span></div></foreignObject></g></g><g transform="translate(587.1484375, 171.2421875)" data-id="G1" data-node="true" id="flowchart-G1-5" class="node default default flowchart-label"><polygon style="" transform="translate(-87.2421875,87.2421875)" class="label-container" points="87.2421875,0 174.484375,-87.2421875 87.2421875,-174.484375 0,-87.2421875"/><g transform="translate(-53.2421875, -19)" style="" class="label"><rect/><foreignObject height="38" width="106.484375"><div style="display: inline-block; white-space: nowrap;" xmlns="http://www.w3.org/1999/xhtml"><span class="nodeLabel">Gate 1<br />Strategy fixed?</span></div></foreignObject></g></g><g transform="translate(849.890625, 171.2421875)" data-id="D" data-node="true" id="flowchart-D-6" class="node default default flowchart-label"><rect height="34" width="135.78125" y="-17" x="-67.890625" ry="0" rx="0" style="" class="basic label-container"/><g transform="translate(-60.390625, -9.5)" style="" class="label"><rect/><foreignObject height="19" width="120.78125"><div style="display: inline-block; white-space: nowrap;" xmlns="http://www.w3.org/1999/xhtml"><span class="nodeLabel">Dependency Sort</span></div></foreignObject></g></g><g transform="translate(1021.1328125, 171.2421875)" data-id="P" data-node="true" id="flowchart-P-7" class="node default default flowchart-label"><rect height="34" width="106.703125" y="-17" x="-53.3515625" ry="0" rx="0" style="" class="basic label-container"/><g transform="translate(-45.8515625, -9.5)" style="" class="label"><rect/><foreignObject height="19" width="91.703125"><div style="display: inline-block; white-space: nowrap;" xmlns="http://www.w3.org/1999/xhtml"><span class="nodeLabel">Phase Design</span></div></foreignObject></g></g><g transform="translate(1234.8046875, 215.703125)" data-id="G2" data-node="true" id="flowchart-G2-8" class="node default default flowchart-label"><polygon style="" transform="translate(-110.3203125,110.3203125)" class="label-container" points="110.3203125,0 220.640625,-110.3203125 110.3203125,-220.640625 0,-110.3203125"/><g transform="translate(-76.3203125, -19)" style="" class="label"><rect/><foreignObject height="38" width="152.640625"><div style="display: inline-block; white-space: nowrap;" xmlns="http://www.w3.org/1999/xhtml"><span class="nodeLabel">Gate 2<br />Execution plan fixed?</span></div></foreignObject></g></g><g transform="translate(1488.7578125, 215.703125)" data-id="E" data-node="true" id="flowchart-E-9" class="node default default flowchart-label"><rect height="34" width="72.046875" y="-17" x="-36.0234375" ry="0" rx="0" style="" class="basic label-container"/><g transform="translate(-28.5234375, -9.5)" style="" class="label"><rect/><foreignObject height="19" width="57.046875"><div style="display: inline-block; white-space: nowrap;" xmlns="http://www.w3.org/1999/xhtml"><span class="nodeLabel">Execute</span></div></foreignObject></g></g><g transform="translate(1752.4140625, 48.453125)" data-id="Gen" data-node="true" id="flowchart-Gen-10" class="node default default flowchart-label"><rect height="34" width="87.796875" y="-17" x="-43.8984375" ry="0" rx="0" style="" class="basic label-container"/><g transform="translate(-36.3984375, -9.5)" style="" class="label"><rect/><foreignObject height="19" width="72.796875"><div style="display: inline-block; white-space: nowrap;" xmlns="http://www.w3.org/1999/xhtml"><span class="nodeLabel">Generator</span></div></foreignObject></g></g><g transform="translate(1978.3515625, 48.453125)" data-id="Ev" data-node="true" id="flowchart-Ev-11" class="node default default flowchart-label"><rect height="34" width="82.828125" y="-17" x="-41.4140625" ry="0" rx="0" style="" class="basic label-container"/><g transform="translate(-33.9140625, -9.5)" style="" class="label"><rect/><foreignObject height="19" width="67.828125"><div style="display: inline-block; white-space: nowrap;" xmlns="http://www.w3.org/1999/xhtml"><span class="nodeLabel">Evaluator</span></div></foreignObject></g></g><g transform="translate(2153.484375, 315.0234375)" data-id="TD" data-node="true" id="flowchart-TD-12" class="node default default flowchart-label"><rect height="34" width="85.9375" y="-17" x="-42.96875" ry="0" rx="0" style="" class="basic label-container"/><g transform="translate(-35.46875, -9.5)" style="" class="label"><rect/><foreignObject height="19" width="70.9375"><div style="display: inline-block; white-space: nowrap;" xmlns="http://www.w3.org/1999/xhtml"><span class="nodeLabel">Task Done</span></div></foreignObject></g></g><g transform="translate(1752.4140625, 132.453125)" data-id="RP" data-node="true" id="flowchart-RP-13" class="node default default flowchart-label"><rect height="34" width="100.3125" y="-17" x="-50.15625" ry="0" rx="0" style="" class="basic label-container"/><g transform="translate(-42.65625, -9.5)" style="" class="label"><rect/><foreignObject height="19" width="85.3125"><div style="display: inline-block; white-space: nowrap;" xmlns="http://www.w3.org/1999/xhtml"><span class="nodeLabel">Review Pool</span></div></foreignObject></g></g><g transform="translate(1978.3515625, 159.703125)" data-id="HG" data-node="true" id="flowchart-HG-14" class="node default default flowchart-label"><rect height="34" width="103.765625" y="-17" x="-51.8828125" ry="0" rx="0" style="" class="basic label-container"/><g transform="translate(-44.3828125, -9.5)" style="" class="label"><rect/><foreignObject height="19" width="88.765625"><div style="display: inline-block; white-space: nowrap;" xmlns="http://www.w3.org/1999/xhtml"><span class="nodeLabel">Human Gate</span></div></foreignObject></g></g><g transform="translate(1752.4140625, 315.0234375)" data-id="PG" data-node="true" id="flowchart-PG-15" class="node default default flowchart-label"><polygon style="" transform="translate(-64.3203125,64.3203125)" class="label-container" points="64.3203125,0 128.640625,-64.3203125 64.3203125,-128.640625 0,-64.3203125"/><g transform="translate(-39.8203125, -9.5)" style="" class="label"><rect/><foreignObject height="19" width="79.640625"><div style="display: inline-block; white-space: nowrap;" xmlns="http://www.w3.org/1999/xhtml"><span class="nodeLabel">Phase Gate</span></div></foreignObject></g></g><g transform="translate(1978.3515625, 315.0234375)" data-id="C" data-node="true" id="flowchart-C-16" class="node default default flowchart-label"><rect height="34" width="83.875" y="-17" x="-41.9375" ry="0" rx="0" style="" class="basic label-container"/><g transform="translate(-34.4375, -9.5)" style="" class="label"><rect/><foreignObject height="19" width="68.875"><div style="display: inline-block; white-space: nowrap;" xmlns="http://www.w3.org/1999/xhtml"><span class="nodeLabel">Complete</span></div></foreignObject></g></g></g></g></g></svg>